<?xml version="1.0" encoding="iso-8859-1"?>
<!-- Generator: Adobe Illustrator 16.0.0, SVG Export Plug-In . SVG Version: 6.00 Build 0)  -->
<!DOCTYPE svg PUBLIC "-//W3C//DTD SVG 1.1//EN" "http://www.w3.org/Graphics/SVG/1.1/DTD/svg11.dtd">
<svg version="1.1" id="Capa_1" xmlns="http://www.w3.org/2000/svg" xmlns:xlink="http://www.w3.org/1999/xlink" x="0px" y="0px"
	 width="183.783px" height="183.783px" viewBox="0 0 183.783 183.783" style="enable-background:new 0 0 183.783 183.783;"
	 xml:space="preserve">
<g>
	<g>
		<path d="M70.878,38.832c9.774,0,17.708-11.343,17.708-21.119C88.585,7.929,80.652,0,70.878,0c-9.783,0-17.717,7.935-17.717,17.713
			C53.161,27.489,61.095,38.832,70.878,38.832z"/>
		<path d="M150.458,25.546h-27.847c-4.781,0-8.674,3.888-8.674,8.674v21.45l-3.021,2.919l-6.137-9.516
			c-0.154-0.235-0.396-0.369-0.583-0.582c-0.304-0.375-0.612-0.723-1.005-1.038c-0.368-0.295-0.773-0.514-1.194-0.722
			c-0.252-0.128-0.443-0.342-0.723-0.443c-0.633-0.229-14.814-5.316-27.802-5.956l-1.669,3.341H71.76l4.716,36.736l-5.604,9.79
			l-5.603-9.79l4.716-36.736h-0.049l-1.663-3.341c-12.992,0.64-27.172,5.728-27.804,5.956c-0.218,0.08-0.367,0.25-0.571,0.348
			c-0.476,0.224-0.915,0.476-1.331,0.808c-0.325,0.251-0.599,0.528-0.868,0.834c-0.313,0.348-0.582,0.711-0.818,1.127
			c-0.235,0.404-0.405,0.812-0.555,1.256c-0.09,0.246-0.252,0.443-0.315,0.7l-11.207,50.43c-0.834,3.775,1.543,7.513,5.319,8.35
			c0.516,0.121,1.027,0.176,1.524,0.176c3.21,0,6.107-2.227,6.838-5.489L48.83,58.291c0.722-0.225,1.541-0.465,2.433-0.711v47.812
			l-5.577,69.319c-0.369,4.623,3.079,8.679,7.705,9.044c0.231,0.018,0.455,0.028,0.684,0.028c4.331,0,8.014-3.333,8.367-7.732
			l5.038-62.649c1.042,0.461,2.186,0.723,3.39,0.723c1.204,0,2.353-0.262,3.39-0.723l5.036,62.649
			c0.354,4.399,4.037,7.732,8.367,7.732c0.231,0,0.455-0.006,0.684-0.028c4.628-0.365,8.075-4.426,7.705-9.044l-5.559-69.331V57.574
			c1.534,0.438,2.845,0.834,3.856,1.16l9.434,14.602c1.139,1.76,2.999,2.919,5.08,3.154c0.271,0.028,0.537,0.044,0.803,0.044
			c1.644,0,3.19-0.643,4.454-1.702c-0.115-0.55-0.168-1.111-0.168-1.686c0,4.777,3.89,8.668,8.672,8.668h27.847
			c4.784,0,8.675-3.891,8.675-8.668V34.213C159.13,29.434,155.24,25.546,150.458,25.546z M127.864,76.25
			c0,0.561-0.723,1.021-1.614,1.021h-3.945c-0.887,0-1.62-0.46-1.62-1.021v-2.481c0-0.561,0.733-1.021,1.62-1.021h3.945
			c0.892,0,1.614,0.46,1.614,1.021V76.25z M127.869,70.479c0,0.558-0.723,1.018-1.619,1.018h-3.933
			c-0.899,0-1.633-0.465-1.633-1.018v-2.484c0-0.561,0.733-1.018,1.633-1.018h3.933c0.896,0,1.619,0.457,1.619,1.018V70.479z
			 M127.875,64.701c0,0.562-0.729,1.021-1.62,1.021h-3.938c-0.892,0-1.62-0.459-1.62-1.021v-2.481c0-0.561,0.729-1.021,1.62-1.021
			h3.938c0.892,0,1.62,0.46,1.62,1.021V64.701z M120.692,56.712v-2.484c0-0.558,0.726-1.018,1.617-1.018h3.94
			c0.892,0,1.619,0.459,1.619,1.018v2.484c0,0.561-0.728,1.018-1.619,1.018h-3.94C121.417,57.729,120.692,57.272,120.692,56.712z
			 M140.116,76.25c0,0.561-0.723,1.021-1.615,1.021h-3.939c-0.884,0-1.62-0.46-1.62-1.021v-2.481c0-0.561,0.736-1.021,1.62-1.021
			h3.939c0.893,0,1.615,0.46,1.615,1.021V76.25z M140.121,70.479c0,0.558-0.723,1.018-1.62,1.018h-3.927
			c-0.896,0-1.633-0.465-1.633-1.018v-2.484c0-0.561,0.736-1.018,1.633-1.018h3.927c0.897,0,1.62,0.457,1.62,1.018V70.479z
			 M140.126,64.701c0,0.562-0.729,1.021-1.62,1.021h-3.933c-0.892,0-1.621-0.459-1.621-1.021v-2.481
			c0-0.561,0.729-1.021,1.621-1.021h3.933c0.892,0,1.62,0.46,1.62,1.021V64.701z M132.949,56.712v-2.484
			c0-0.558,0.729-1.018,1.62-1.018h3.932c0.893,0,1.62,0.459,1.62,1.018v2.484c0,0.561-0.728,1.018-1.62,1.018h-3.932
			C133.677,57.729,132.949,57.272,132.949,56.712z M152.377,76.25c0,0.561-0.72,1.021-1.611,1.021h-3.945
			c-0.887,0-1.62-0.46-1.62-1.021v-2.481c0-0.561,0.733-1.021,1.62-1.021h3.945c0.892,0,1.611,0.46,1.611,1.021V76.25z
			 M152.383,70.479c0,0.558-0.722,1.018-1.617,1.018h-3.937c-0.896,0-1.629-0.465-1.629-1.018v-2.484
			c0-0.561,0.733-1.018,1.629-1.018h3.937c0.896,0,1.617,0.457,1.617,1.018V70.479z M152.391,64.701c0,0.562-0.729,1.021-1.62,1.021
			h-3.941c-0.892,0-1.62-0.459-1.62-1.021v-2.481c0-0.561,0.729-1.021,1.62-1.021h3.941c0.891,0,1.62,0.46,1.62,1.021V64.701z
			 M145.205,56.712v-2.484c0-0.558,0.729-1.018,1.62-1.018h3.941c0.892,0,1.617,0.459,1.617,1.018v2.484
			c0,0.561-0.726,1.018-1.617,1.018h-3.941C145.934,57.729,145.205,57.272,145.205,56.712z M154.704,42.865
			c0,1.721-1.575,3.126-3.502,3.126h-29.336c-1.92,0-3.494-1.406-3.494-3.126V35.25c0-1.726,1.574-3.133,3.494-3.133h29.336
			c1.927,0,3.502,1.407,3.502,3.133V42.865z"/>
	</g>
</g>
<g>
</g>
<g>
</g>
<g>
</g>
<g>
</g>
<g>
</g>
<g>
</g>
<g>
</g>
<g>
</g>
<g>
</g>
<g>
</g>
<g>
</g>
<g>
</g>
<g>
</g>
<g>
</g>
<g>
</g>
</svg>
