<?xml version="1.0" encoding="iso-8859-1"?>
<!-- Generator: Adobe Illustrator 18.0.0, SVG Export Plug-In . SVG Version: 6.00 Build 0)  -->
<!DOCTYPE svg PUBLIC "-//W3C//DTD SVG 1.1//EN" "http://www.w3.org/Graphics/SVG/1.1/DTD/svg11.dtd">
<svg version="1.1" id="Capa_1" xmlns="http://www.w3.org/2000/svg" xmlns:xlink="http://www.w3.org/1999/xlink" x="0px" y="0px"
	 viewBox="0 0 297 297" style="enable-background:new 0 0 297 297;" xml:space="preserve">
<g>
	<path d="M259.328,34.708L151.577,0.478c-2.001-0.637-4.153-0.637-6.155,0L37.672,34.708c-4.221,1.34-7.088,5.259-7.088,9.688
		v134.688c0,28.124,19.541,56.529,58.08,84.425c27.471,19.886,54.542,32.093,55.682,32.603c1.321,0.592,2.737,0.887,4.153,0.887
		s2.832-0.296,4.153-0.887c1.14-0.51,28.211-12.717,55.682-32.603c38.539-27.897,58.08-56.302,58.08-84.425V44.396
		C266.416,39.967,263.549,36.048,259.328,34.708z M246.086,179.084c0,41.357-66.882,81.896-97.59,96.549
		c-30.709-14.628-97.582-55.121-97.582-96.549V51.832L148.5,20.831l97.586,31.001V179.084z"/>
	<path d="M138.335,73.033v16.891c-16.056,1.326-29.17,14.959-29.17,30.96c0,16.846,14.531,31.077,31.73,31.077h15.208
		c5.967,0,11.402,5.123,11.402,10.748c0,5.623-5.435,10.744-11.402,10.744H119.33c-5.614,0-10.165,4.551-10.165,10.165
		c0,5.614,4.551,10.165,10.165,10.165h19.005v15.6c0,5.614,4.551,10.165,10.165,10.165s10.165-4.551,10.165-10.165v-15.716
		c16.056-1.327,29.17-14.959,29.17-30.959c0-16.846-14.532-31.078-31.732-31.078h-15.208c-5.966,0-11.4-5.122-11.4-10.747
		c0-5.624,5.434-10.745,11.4-10.745h36.775c5.614,0,10.165-4.551,10.165-10.165c0-5.614-4.551-10.165-10.165-10.165h-19.005V73.033
		c0-5.614-4.551-10.165-10.165-10.165S138.335,67.419,138.335,73.033z"/>
</g>
<g>
</g>
<g>
</g>
<g>
</g>
<g>
</g>
<g>
</g>
<g>
</g>
<g>
</g>
<g>
</g>
<g>
</g>
<g>
</g>
<g>
</g>
<g>
</g>
<g>
</g>
<g>
</g>
<g>
</g>
</svg>
